<?xml version="1.0" standalone="no"?>
<!DOCTYPE svg PUBLIC "-//W3C//DTD SVG 20010904//EN"
 "http://www.w3.org/TR/2001/REC-SVG-20010904/DTD/svg10.dtd">
<svg version="1.0" xmlns="http://www.w3.org/2000/svg"
 width="500.000000pt" height="500.000000pt" viewBox="0 0 500.000000 500.000000"
 preserveAspectRatio="xMidYMid meet">

<g transform="translate(0.000000,500.000000) scale(0.100000,-0.100000)"
fill="#000000" stroke="none">
<path d="M2332 4790 c-556 -79 -989 -484 -1108 -1040 -22 -104 -25 -368 -6
-480 73 -416 268 -870 639 -1490 167 -278 483 -744 620 -915 l23 -28 22 28
c138 171 454 637 621 915 371 620 566 1074 639 1490 19 111 16 376 -6 478 -57
266 -173 481 -360 668 -184 184 -389 297 -646 355 -98 22 -340 33 -438 19z
m393 -214 c440 -96 760 -422 857 -871 21 -101 16 -332 -11 -460 -85 -405 -348
-974 -724 -1564 -143 -224 -330 -486 -347 -486 -7 0 -64 70 -125 156 -376 527
-711 1149 -866 1606 -127 376 -140 634 -45 912 124 359 459 646 831 710 33 6
71 13 85 15 50 9 277 -3 345 -18z"/>
<path d="M2380 3984 c-93 -25 -161 -64 -231 -134 -218 -218 -192 -563 57 -751
149 -112 349 -128 524 -41 71 35 177 141 212 212 101 204 67 421 -91 580 -126
127 -305 178 -471 134z m254 -218 c105 -51 161 -144 161 -266 0 -85 -21 -142
-74 -203 -82 -92 -237 -121 -353 -64 -160 79 -215 278 -118 430 80 126 246
170 384 103z"/>
<path d="M725 1788 c-24 -64 -565 -1582 -565 -1585 0 -2 1053 -3 2341 -3 2224
0 2340 1 2335 18 -3 9 -131 368 -285 797 l-279 780 -383 3 -384 2 -57 -97 -57
-98 370 -5 370 -5 213 -595 212 -595 -1028 -3 c-565 -1 -1491 -1 -2056 0
l-1028 3 212 595 213 595 370 5 370 5 -57 98 -57 97 -383 0 c-297 0 -384 -3
-387 -12z"/>
</g>
</svg>
