<?xml version="1.0" standalone="no"?>
<!DOCTYPE svg PUBLIC "-//W3C//DTD SVG 20010904//EN"
 "http://www.w3.org/TR/2001/REC-SVG-20010904/DTD/svg10.dtd">
<svg version="1.0" xmlns="http://www.w3.org/2000/svg"
 width="500.000000pt" height="500.000000pt" viewBox="0 0 500.000000 500.000000"
 preserveAspectRatio="xMidYMid meet">

<g transform="translate(0.000000,500.000000) scale(0.100000,-0.100000)"
fill="#000000" stroke="none">
<path d="M1223 4585 c-201 -36 -379 -131 -528 -280 -129 -129 -214 -275 -264
-454 l-26 -96 0 -1250 0 -1250 23 -90 c31 -123 115 -291 197 -392 154 -192
395 -328 639 -362 108 -15 2364 -15 2472 0 429 59 775 396 849 828 14 76 15
250 12 1302 -3 1209 -3 1214 -24 1294 -91 337 -320 593 -631 705 -170 61 -138
60 -1451 59 -934 -1 -1212 -4 -1268 -14z m2582 -208 c93 -28 234 -101 302
-157 87 -71 157 -160 208 -265 86 -177 80 -63 80 -1450 0 -1340 3 -1252 -55
-1407 -29 -78 -106 -194 -175 -263 -115 -115 -281 -199 -442 -224 -114 -17
-2364 -15 -2463 3 -314 57 -548 278 -638 601 -15 55 -17 172 -17 1290 0 1379
-6 1270 74 1440 111 236 334 402 601 448 14 3 574 4 1245 3 1138 -2 1224 -3
1280 -19z"/>
<path d="M1655 3886 c-186 -36 -329 -139 -415 -297 l-35 -64 1 -170 c0 -136 5
-191 23 -275 75 -356 254 -694 537 -1020 480 -552 1102 -877 1646 -858 106 3
117 6 178 38 39 20 93 63 135 105 113 113 168 250 169 420 0 109 -23 171 -87
232 -50 47 -318 221 -397 257 -73 34 -172 47 -256 35 -59 -8 -263 -86 -289
-110 -50 -47 -284 79 -446 240 -161 162 -287 396 -240 446 24 26 102 230 110
289 12 83 -1 183 -34 253 -35 78 -212 352 -258 400 -75 79 -197 107 -342 79z
m184 -208 c35 -26 221 -312 241 -371 24 -76 9 -159 -54 -301 -56 -125 -58
-132 -54 -202 3 -64 10 -85 60 -186 130 -260 343 -469 604 -595 83 -41 109
-48 169 -51 69 -4 76 -2 201 54 109 49 140 58 200 62 90 5 116 -6 311 -130
176 -112 187 -126 178 -222 -13 -135 -78 -248 -178 -307 l-52 -30 -140 5
c-375 13 -766 191 -1140 518 -266 233 -473 496 -610 773 -113 229 -164 419
-172 635 l-4 135 30 52 c65 109 191 177 342 182 23 1 48 -7 68 -21z"/>
</g>
</svg>
