<?xml version="1.0" standalone="no"?>
<!DOCTYPE svg PUBLIC "-//W3C//DTD SVG 20010904//EN"
 "http://www.w3.org/TR/2001/REC-SVG-20010904/DTD/svg10.dtd">
<svg version="1.0" xmlns="http://www.w3.org/2000/svg"
 width="500.000000pt" height="500.000000pt" viewBox="0 0 500.000000 500.000000"
 preserveAspectRatio="xMidYMid meet">

<g transform="translate(0.000000,500.000000) scale(0.100000,-0.100000)"
fill="#000000" stroke="none">
<path d="M2470 4793 c-589 -56 -1084 -287 -1490 -693 -505 -505 -756 -1247
-655 -1935 191 -1290 1425 -2167 2705 -1924 589 113 1123 460 1459 948 59 86
67 132 29 176 -29 33 -88 44 -121 22 -13 -8 -55 -60 -93 -114 -88 -126 -346
-385 -469 -472 -435 -306 -933 -441 -1436 -391 -951 96 -1704 799 -1870 1746
-30 169 -32 444 -5 609 102 628 432 1141 956 1488 428 283 996 404 1490 318
818 -143 1447 -827 1518 -1651 25 -288 -76 -659 -261 -955 -191 -306 -494
-558 -772 -641 -35 -10 -94 -18 -141 -18 -71 -1 -85 2 -121 26 -50 33 -81 82
-89 139 -7 51 31 250 72 381 14 45 183 476 375 956 192 479 349 881 349 892 0
51 -49 100 -100 100 -34 0 -75 -26 -89 -57 -7 -15 -40 -95 -73 -178 -33 -82
-61 -151 -62 -153 -2 -1 -25 35 -51 80 -92 160 -249 287 -426 347 -126 43
-217 56 -384 55 -129 -1 -162 -5 -235 -26 -246 -72 -459 -202 -678 -413 -286
-274 -476 -613 -557 -990 -33 -153 -49 -329 -42 -460 22 -420 304 -765 717
-877 120 -32 335 -32 463 0 168 42 321 129 442 251 39 39 73 71 76 71 4 0 9
-17 12 -37 17 -106 112 -223 225 -276 63 -30 73 -32 177 -31 135 1 227 24 371
93 146 70 271 158 403 286 187 181 304 341 411 560 94 195 144 353 180 582 25
155 25 237 0 399 -37 239 -87 405 -179 599 -230 482 -627 850 -1125 1042 -259
100 -635 153 -906 126z m495 -1123 c185 -47 322 -150 402 -305 40 -77 83 -207
83 -250 0 -11 -103 -278 -229 -593 -200 -500 -238 -587 -301 -689 -167 -271
-315 -418 -489 -484 -136 -51 -336 -61 -476 -24 -254 69 -459 275 -532 535
-21 78 -24 330 -5 450 75 461 308 855 668 1127 164 124 342 212 499 249 82 19
275 11 380 -16z"/>
</g>
</svg>
